<svg width="22" height="18" viewBox="0 0 22 18" fill="none" xmlns="http://www.w3.org/2000/svg">
<path d="M21.6535 1.21296C21.4803 1.03968 21.3504 0.90972 21.1772 0.77976L21.1339 0.73644C21.0906 0.69312 21.0906 0.69312 21.0472 0.69312C21.0039 0.6498 20.9606 0.6498 20.9606 0.6498C20.9173 0.6498 20.9173 0.60648 20.874 0.60648C20.1811 0.2166 19.4016 0 18.6654 0C17.5394 0 16.4567 0.4332 15.5906 1.25628L13.7283 3.11904L4.33071 0.17328L4.2441 0.17328C4.20079 0.17328 4.15748 0.12996 4.07087 0.12996C4.02756 0.12996 3.98425 0.12996 3.94095 0.12996C3.6378 0.12996 3.37795 0.25992 3.16142 0.47652L2.16535 1.47288L8.74803 8.05752L6.01969 10.7867L1.77559 10.3102C1.73229 10.3102 1.68898 10.3102 1.68898 10.3102C1.55906 10.3102 1.42913 10.3102 1.29921 10.3968C1.16929 10.4401 0.996066 10.5268 0.909451 10.6567L0 11.5664L6.06299 17.6312L22 1.60284C21.9134 1.47288 21.7835 1.34292 21.6535 1.21296Z" fill="#616C81"/>
</svg>
